PathFileType	4	(X/Y/Z)	D:\TRACE\spotREDO_2-26-24\spot_justBody_Motion_1_1-v60.trc
DataRate	CameraRate	NumFrames	NumMarkers	Units	OrigDataRate	OrigDataStartFrame	OrigNumFrames
100.00	100.00	      24	9	mm	100.00	4376	      7000
Frame#	Time	front left toe			Front right toe			aft left toe			aft right toe			Arm			FL body			FR body			AL Body			AR Body			
		X1	Y1	Z1	X2	Y2	Z2	X3	Y3	Z3	X4	Y4	Z4	X5	Y5	Z5	X6	Y6	Z6	X7	Y7	Z7	X8	Y8	Z8	X9	Y9	Z9	

4376	43.750	-278.03931	11.81603	-136.21330	251.08658	18.48314	-199.96954	-263.46213	37.08848	374.74353	336.47766	46.62489	321.78781	-77.56960	801.99896	-366.92783	-158.68347	543.47168	-327.27878	-3.43888	547.29169	-344.96890	-69.02536	579.12439	551.62610	78.50014	578.76465	536.99915	
4377	43.760	-277.08966	11.62873	-136.05812	251.58653	18.56590	-200.22830	-262.46814	37.11918	374.83936	336.90738	46.66402	321.79782	-77.66264	801.84454	-367.38483	-158.61263	543.33997	-327.27234	-3.61885	547.08069	-345.20163	-68.82569	579.46729	551.29907	78.86157	579.03571	536.72217	
4378	43.770	-276.41965	11.57387	-135.89606	252.90714	18.87266	-200.10236	-261.65350	37.11759	374.87512	338.18875	46.76410	321.71088	-77.67745	801.63940	-367.71936	-158.81908	543.18903	-327.54642	-3.68224	546.85547	-345.51068	-68.53555	579.75684	550.81311	79.13089	579.32690	536.14972	
4379	43.780	-275.59296	11.57484	-135.90234	253.58754	19.00337	-200.03392	-260.87741	37.04607	374.82733	338.80017	46.65308	321.55276	-77.63474	801.37836	-368.05701	-158.84877	543.07849	-327.74149	-3.83532	546.74146	-345.94128	-68.23611	579.95319	550.31598	79.44337	579.48859	535.73834	
4380	43.790	-274.61084	11.48940	-135.85477	254.37627	18.71596	-200.15926	-259.88498	37.06637	374.95117	339.44635	46.63349	321.46954	-77.73879	801.28821	-368.56216	-159.17450	543.01514	-328.38889	-3.94200	546.60559	-346.38766	-68.07893	580.09344	550.07031	79.48119	579.64673	535.41895	
4381	43.800	-273.91324	11.61483	-135.96873	255.47411	18.83764	-200.12085	-259.25320	37.02054	374.85788	340.80740	46.70489	321.42258	-77.95648	801.05701	-369.35507	-159.35201	542.93622	-328.76886	-4.05052	546.36536	-346.75745	-68.30390	580.30426	549.76868	79.49252	579.79309	534.95819	
4382	43.810	-273.05347	11.42048	-135.95198	256.22797	19.01844	-200.19920	-258.31049	36.86922	374.87949	341.31485	46.65901	321.35486	-77.97506	801.04633	-369.85156	-159.42303	542.71930	-329.05634	-4.03849	546.27380	-347.09717	-68.23254	580.35699	549.39270	79.34873	579.99341	534.67493	
4383	43.820	-272.22546	11.48387	-135.90440	256.93546	19.07130	-200.36108	-257.24930	36.58219	374.98267	341.88815	46.76664	321.35989	-77.96336	800.85303	-370.16156	-159.48805	542.62457	-329.30951	-4.25300	546.14124	-347.55988	-68.35174	580.42456	548.87854	79.38142	579.99945	534.38074	
4384	43.830	-271.33823	11.44755	-135.75203	257.71298	19.15904	-200.42805	-256.72433	36.55432	375.11981	343.12708	46.95180	321.33536	-77.75168	800.64502	-370.41089	-159.53751	542.56659	-329.89410	-4.39127	545.98627	-347.97751	-68.29668	580.48248	548.31885	79.29433	579.96960	533.73932	
4385	43.840	-270.50952	11.40508	-135.86720	258.54407	19.23921	-200.19833	-255.91449	36.54748	375.16049	343.73993	46.77782	321.22144	-77.87896	800.51099	-371.07779	-159.65115	542.52588	-330.61612	-4.50624	545.84723	-348.45291	-68.25916	580.65326	547.86615	79.13830	579.97614	533.24799	
4386	43.850	-269.85236	11.63326	-135.72719	259.36514	19.43374	-200.08844	-254.89177	36.17793	375.08127	344.48087	46.75040	321.28610	-78.04813	800.43555	-371.93542	-159.74466	542.35718	-331.14441	-4.66426	545.65961	-349.07916	-68.64716	580.82953	547.33844	79.02512	580.16803	532.61035	
4387	43.860	-269.05463	11.57874	-135.98103	259.96365	18.91697	-200.66510	-254.54453	35.77463	374.96924	344.57462	50.54243	321.55826	-78.27129	800.45099	-372.39978	-160.07863	542.39624	-331.60361	-4.86253	545.62653	-349.68747	-68.67697	580.55853	546.73724	78.83562	579.32678	532.09296	
4388	43.870	-268.48517	12.33227	-135.79240	260.18423	19.08779	-200.89905	-254.26244	35.39488	375.20972	343.12289	58.77435	324.68384	-78.41266	800.39954	-372.87686	-161.10628	543.23077	-332.29150	-5.78005	545.75287	-350.45795	-67.75198	579.99188	546.08698	79.74380	578.23413	531.20013	
4389	43.880	-267.50977	12.44767	-135.28139	260.56061	19.33721	-201.52679	-253.42256	35.33255	375.38965	341.60815	69.96817	330.74109	-77.91556	800.96326	-373.30316	-161.79189	543.41266	-332.78629	-6.82991	545.60901	-351.28439	-67.61923	579.65448	545.39050	79.90449	577.46063	530.38275	
4390	43.890	-266.47455	11.73564	-135.02443	261.29858	19.44007	-201.57652	-252.24925	35.63592	374.96396	341.42072	82.78172	333.23517	-78.38667	801.27936	-374.01498	-162.28232	542.96606	-333.10352	-7.03052	545.30261	-351.78622	-67.54451	579.84930	544.64661	80.25197	577.57941	529.75800	
4391	43.900	-266.05313	11.20345	-135.00659	262.22076	19.61560	-201.15942	-251.21042	35.98404	374.98294	341.51596	95.98959	330.47781	-78.95818	800.77460	-374.43750	-162.03819	542.18805	-333.54871	-7.19612	544.37897	-352.28348	-67.81545	580.20654	544.19830	79.90012	578.07117	529.18170	
4392	43.910	-265.49579	10.98950	-135.06714	262.82370	19.37174	-201.27699	-250.73117	35.84768	374.95050	341.97476	109.05969	324.10529	-79.36437	799.56885	-374.99255	-161.95154	541.74396	-333.99020	-6.92430	543.79926	-352.63168	-68.24355	580.46973	543.86963	79.34799	578.49707	528.81946	
4393	43.920	-265.00488	11.25417	-135.10196	263.89066	19.62046	-201.15364	-250.18069	35.53169	375.01566	338.86224	120.23682	317.60019	-79.32093	798.15515	-375.95847	-161.91948	541.39746	-334.58200	-6.58699	543.47876	-352.89008	-68.67686	580.44983	543.51709	78.84091	578.59344	528.61041	
4394	43.930	-264.56912	11.50934	-135.19254	264.52637	19.66575	-201.03543	-249.70169	35.25897	375.09955	334.32822	129.44545	314.49060	-79.12166	797.91919	-376.55359	-161.76706	540.80029	-335.06833	-6.37531	543.27765	-353.19086	-68.86740	580.39233	543.16248	78.49419	578.57153	528.31171	
4395	43.940	-263.18210	10.97224	-134.97606	265.12399	19.73712	-201.02293	-249.13123	35.06576	375.01721	329.19760	137.06731	314.67471	-78.82695	797.97974	-376.92154	-161.45935	540.45111	-335.14688	-6.31579	543.15021	-353.54129	-68.83259	580.24109	542.78308	78.40730	578.51691	528.15259	
4396	43.950	-262.20959	10.66874	-134.77364	265.63660	19.73601	-201.14903	-248.32950	34.91492	375.19321	326.73718	145.25943	316.84064	-78.58676	797.96356	-377.07355	-161.25813	540.29126	-335.41312	-6.06489	543.00018	-353.93716	-68.62511	579.97675	542.44727	78.85943	578.27533	527.75952	
4397	43.960	-261.60657	10.53873	-134.69482	266.37253	19.88029	-201.11559	-247.52660	34.83844	375.17050	324.64969	152.75175	317.92340	-78.23421	797.87695	-377.13754	-161.11169	540.09894	-335.64835	-5.86226	542.87488	-354.10226	-68.51034	579.91895	542.22424	78.95479	578.24670	527.48267	
4398	43.970	-260.84705	10.43831	-134.73549	267.13150	19.95565	-200.97874	-247.18541	34.94534	375.15189	322.75919	159.40501	316.74246	-78.19075	797.70544	-377.50549	-160.82826	539.65887	-335.91626	-5.59884	542.54773	-354.19229	-68.60571	579.94373	542.12848	78.68981	578.54114	527.32220	
4399	43.980	-260.43979	10.64928	-134.75769	267.94714	19.99566	-200.83708	-246.23895	34.69598	375.15817	322.01129	164.80716	314.48752	-78.45603	797.26849	-377.87933	-160.32906	539.21277	-336.24921	-4.97838	542.33282	-354.16171	-68.78701	580.06836	542.05566	78.43090	578.93951	527.33472	
